M48
;Layer_Color=9474304
;FILE_FORMAT=2:5
INCH,LZ
;TYPE=PLATED
T1F00S00C0.00984
%
T01
X-0035Y-005
Y-004
Y-003
Y-002
Y-001
Y0
X-0005Y-0005
X0
X0005
Y-0015
X0
X-0005
Y-0025
X0
X0005
X0045Y-003
Y-004
Y-002
Y-001
Y0
X0055
Y-001
Y-002
Y-003
X0065Y-001
Y0
X-0045
Y-001
Y-002
Y-003
Y-004
X-0055Y-003
Y-002
Y-001
Y0
X-0065
Y-001
Y001
X-0055
X-0045
Y002
Y003
Y004
X-0055Y003
Y002
X-0035
Y001
Y003
Y004
Y005
X00088Y00404
Y00379
Y00355
X00216Y00195
Y00171
Y00145
X0018Y0014
Y00072
X0005Y0005
X0
X-0005
X0045Y001
Y002
Y003
Y004
X0055Y003
Y002
Y001
X0065
M30
