G04*
G04 #@! TF.GenerationSoftware,Altium Limited,Altium Designer,22.0.2 (36)*
G04*
G04 Layer_Color=16711935*
%FSLAX25Y25*%
%MOIN*%
G70*
G04*
G04 #@! TF.SameCoordinates,6020ED95-2C93-4A4D-A151-97898FCA3E42*
G04*
G04*
G04 #@! TF.FilePolarity,Negative*
G04*
G01*
G75*
%ADD10C,0.00050*%
G04:AMPARAMS|DCode=24|XSize=86.74mil|YSize=23.75mil|CornerRadius=0mil|HoleSize=0mil|Usage=FLASHONLY|Rotation=270.000|XOffset=0mil|YOffset=0mil|HoleType=Round|Shape=Octagon|*
%AMOCTAGOND24*
4,1,8,-0.00594,-0.04337,0.00594,-0.04337,0.01187,-0.03743,0.01187,0.03743,0.00594,0.04337,-0.00594,0.04337,-0.01187,0.03743,-0.01187,-0.03743,-0.00594,-0.04337,0.0*
%
%ADD24OCTAGOND24*%

%ADD25O,0.02375X0.08674*%
%ADD26R,0.01745X0.02769*%
%ADD27R,0.05524X0.03162*%
%ADD28R,0.02375X0.02769*%
%ADD29R,0.01981X0.05328*%
%ADD30R,0.01981X0.03359*%
%ADD31O,0.02178X0.08674*%
G04:AMPARAMS|DCode=32|XSize=86.74mil|YSize=21.78mil|CornerRadius=0mil|HoleSize=0mil|Usage=FLASHONLY|Rotation=270.000|XOffset=0mil|YOffset=0mil|HoleType=Round|Shape=Octagon|*
%AMOCTAGOND32*
4,1,8,-0.00545,-0.04337,0.00545,-0.04337,0.01089,-0.03793,0.01089,0.03793,0.00545,0.04337,-0.00545,0.04337,-0.01089,0.03793,-0.01089,-0.03793,-0.00545,-0.04337,0.0*
%
%ADD32OCTAGOND32*%

D10*
X27213Y-64579D02*
G03*
X-27214Y-64579I-27213J64579D01*
G01*
X-27214D02*
X0D01*
X27213D01*
D24*
X-8206Y28500D02*
D03*
D25*
X-5843D02*
D03*
X-3481D02*
D03*
X-1119D02*
D03*
X1243D02*
D03*
X3605D02*
D03*
D26*
X25447Y960D02*
D03*
X27416D02*
D03*
X29384D02*
D03*
X31353D02*
D03*
X25447Y8440D02*
D03*
X27416D02*
D03*
X29384D02*
D03*
X31353D02*
D03*
D27*
X28400Y4700D02*
D03*
D28*
X29376Y17163D02*
D03*
X25833Y17163D02*
D03*
X17971Y30300D02*
D03*
X14428Y30300D02*
D03*
X29376Y13599D02*
D03*
X25833Y13598D02*
D03*
X14627Y18700D02*
D03*
X17973D02*
D03*
X14627Y22300D02*
D03*
X17973D02*
D03*
X17971Y26800D02*
D03*
X14428Y26800D02*
D03*
X31353Y-4135D02*
D03*
X28006D02*
D03*
D29*
X-14411Y54268D02*
D03*
X14211D02*
D03*
D30*
X10727Y65332D02*
D03*
X8758D02*
D03*
X6790D02*
D03*
X4821D02*
D03*
X2853D02*
D03*
X884D02*
D03*
X-1084D02*
D03*
X-3053D02*
D03*
X-5021D02*
D03*
X-6990D02*
D03*
X-8958D02*
D03*
X-10927D02*
D03*
D31*
X-15157Y-50500D02*
D03*
X-12402D02*
D03*
X-9646D02*
D03*
X-6890D02*
D03*
X-4134D02*
D03*
X-1378D02*
D03*
X1378D02*
D03*
X4134D02*
D03*
X6890D02*
D03*
X9646D02*
D03*
X12402D02*
D03*
D32*
X15157D02*
D03*
M02*
