G04*
G04 #@! TF.GenerationSoftware,Altium Limited,Altium Designer,22.0.2 (36)*
G04*
G04 Layer_Color=128*
%FSLAX25Y25*%
%MOIN*%
G70*
G04*
G04 #@! TF.SameCoordinates,6020ED95-2C93-4A4D-A151-97898FCA3E42*
G04*
G04*
G04 #@! TF.FilePolarity,Positive*
G04*
G01*
G75*
%ADD10C,0.00050*%
%ADD34C,0.00200*%
D10*
X27213Y-64579D02*
G03*
X-27214Y-64579I-27213J64579D01*
G01*
X-27214D02*
X0D01*
X27213D01*
D34*
X4508Y5000D02*
X5492D01*
X5000Y4508D02*
Y5492D01*
X4508Y-5000D02*
X5492D01*
X5000Y-5492D02*
Y-4508D01*
X4508Y-15000D02*
X5492D01*
X5000Y-15492D02*
Y-14508D01*
X4508Y-25000D02*
X5492D01*
X5000Y-25492D02*
Y-24508D01*
X-5492Y-25000D02*
X-4508D01*
X-5000Y-25492D02*
Y-24508D01*
X-5492Y5000D02*
X-4508D01*
X-5000Y4508D02*
Y5492D01*
X-5492Y-5000D02*
X-4508D01*
X-5000Y-5492D02*
Y-4508D01*
X-5492Y-15000D02*
X-4508D01*
X-5000Y-15492D02*
Y-14508D01*
X-492Y-25000D02*
X492D01*
X0Y-25492D02*
Y-24508D01*
X-492Y-15000D02*
X492D01*
X0Y-15492D02*
Y-14508D01*
X-492Y-5000D02*
X492D01*
X0Y-5492D02*
Y-4508D01*
X-492Y5000D02*
X492D01*
X0Y4508D02*
Y5492D01*
X44508Y-40000D02*
X45492D01*
X45000Y-40492D02*
Y-39508D01*
X44508Y-30000D02*
X45492D01*
X45000Y-30492D02*
Y-29508D01*
X44508Y40000D02*
X45492D01*
X45000Y39508D02*
Y40492D01*
X44508Y30000D02*
X45492D01*
X45000Y29508D02*
Y30492D01*
X44508Y20000D02*
X45492D01*
X45000Y19508D02*
Y20492D01*
X44508Y10000D02*
X45492D01*
X45000Y9508D02*
Y10492D01*
X44508Y0D02*
X45492D01*
X45000Y-492D02*
Y492D01*
X44508Y-10000D02*
X45492D01*
X45000Y-10492D02*
Y-9508D01*
X44508Y-20000D02*
X45492D01*
X45000Y-20492D02*
Y-19508D01*
X54508Y-30000D02*
X55492D01*
X55000Y-30492D02*
Y-29508D01*
X54508Y-20000D02*
X55492D01*
X55000Y-20492D02*
Y-19508D01*
X54508Y30000D02*
X55492D01*
X55000Y29508D02*
Y30492D01*
X54508Y20000D02*
X55492D01*
X55000Y19508D02*
Y20492D01*
X54508Y10000D02*
X55492D01*
X55000Y9508D02*
Y10492D01*
X54508Y0D02*
X55492D01*
X55000Y-492D02*
Y492D01*
X54508Y-10000D02*
X55492D01*
X55000Y-10492D02*
Y-9508D01*
X64508Y-10000D02*
X65492D01*
X65000Y-10492D02*
Y-9508D01*
X64508Y0D02*
X65492D01*
X65000Y-492D02*
Y492D01*
X64508Y10000D02*
X65492D01*
X65000Y9508D02*
Y10492D01*
X-35492Y-50000D02*
X-34508D01*
X-35000Y-50492D02*
Y-49508D01*
X-35492Y-40000D02*
X-34508D01*
X-35000Y-40492D02*
Y-39508D01*
X-35492Y-30000D02*
X-34508D01*
X-35000Y-30492D02*
Y-29508D01*
X-35492Y-20000D02*
X-34508D01*
X-35000Y-20492D02*
Y-19508D01*
X-35492Y-10000D02*
X-34508D01*
X-35000Y-10492D02*
Y-9508D01*
X-35492Y0D02*
X-34508D01*
X-35000Y-492D02*
Y492D01*
X-35492Y10000D02*
X-34508D01*
X-35000Y9508D02*
Y10492D01*
X-35492Y20000D02*
X-34508D01*
X-35000Y19508D02*
Y20492D01*
X-35492Y30000D02*
X-34508D01*
X-35000Y29508D02*
Y30492D01*
X-35492Y40000D02*
X-34508D01*
X-35000Y39508D02*
Y40492D01*
X-35492Y50000D02*
X-34508D01*
X-35000Y49508D02*
Y50492D01*
X-45492Y-40000D02*
X-44508D01*
X-45000Y-40492D02*
Y-39508D01*
X-45492Y40000D02*
X-44508D01*
X-45000Y39508D02*
Y40492D01*
X-45492Y30000D02*
X-44508D01*
X-45000Y29508D02*
Y30492D01*
X-45492Y20000D02*
X-44508D01*
X-45000Y19508D02*
Y20492D01*
X-45492Y10000D02*
X-44508D01*
X-45000Y9508D02*
Y10492D01*
X-45492Y0D02*
X-44508D01*
X-45000Y-492D02*
Y492D01*
X-45492Y-10000D02*
X-44508D01*
X-45000Y-10492D02*
Y-9508D01*
X-45492Y-20000D02*
X-44508D01*
X-45000Y-20492D02*
Y-19508D01*
X-45492Y-30000D02*
X-44508D01*
X-45000Y-30492D02*
Y-29508D01*
X-55492Y-30000D02*
X-54508D01*
X-55000Y-30492D02*
Y-29508D01*
X-55492Y-20000D02*
X-54508D01*
X-55000Y-20492D02*
Y-19508D01*
X-55492Y30000D02*
X-54508D01*
X-55000Y29508D02*
Y30492D01*
X-55492Y20000D02*
X-54508D01*
X-55000Y19508D02*
Y20492D01*
X-55492Y10000D02*
X-54508D01*
X-55000Y9508D02*
Y10492D01*
X-55492Y0D02*
X-54508D01*
X-55000Y-492D02*
Y492D01*
X-55492Y-10000D02*
X-54508D01*
X-55000Y-10492D02*
Y-9508D01*
X-65492Y-10000D02*
X-64508D01*
X-65000Y-10492D02*
Y-9508D01*
X-65492Y0D02*
X-64508D01*
X-65000Y-492D02*
Y492D01*
X-65492Y10000D02*
X-64508D01*
X-65000Y9508D02*
Y10492D01*
X21108Y19500D02*
X22092D01*
X21600Y19008D02*
Y19992D01*
X21108Y14500D02*
X22092D01*
X21600Y14008D02*
Y14992D01*
X21108Y17100D02*
X22092D01*
X21600Y16608D02*
Y17592D01*
X8308Y40400D02*
X9292D01*
X8800Y39908D02*
Y40892D01*
X8308Y37900D02*
X9292D01*
X8800Y37408D02*
Y38392D01*
X8308Y35500D02*
X9292D01*
X8800Y35008D02*
Y35992D01*
X17508Y14000D02*
X18492D01*
X18000Y13508D02*
Y14492D01*
X17508Y7200D02*
X18492D01*
X18000Y6708D02*
Y7692D01*
M02*
