G04*
G04 #@! TF.GenerationSoftware,Altium Limited,Altium Designer,22.0.2 (36)*
G04*
G04 Layer_Physical_Order=2*
G04 Layer_Color=16711680*
%FSLAX25Y25*%
%MOIN*%
G70*
G04*
G04 #@! TF.SameCoordinates,6020ED95-2C93-4A4D-A151-97898FCA3E42*
G04*
G04*
G04 #@! TF.FilePolarity,Positive*
G04*
G01*
G75*
%ADD10C,0.00050*%
%ADD11C,0.00900*%
%ADD12C,0.01772*%
G04:AMPARAMS|DCode=13|XSize=78.74mil|YSize=15.75mil|CornerRadius=0mil|HoleSize=0mil|Usage=FLASHONLY|Rotation=270.000|XOffset=0mil|YOffset=0mil|HoleType=Round|Shape=Octagon|*
%AMOCTAGOND13*
4,1,8,-0.00394,-0.03937,0.00394,-0.03937,0.00787,-0.03543,0.00787,0.03543,0.00394,0.03937,-0.00394,0.03937,-0.00787,0.03543,-0.00787,-0.03543,-0.00394,-0.03937,0.0*
%
%ADD13OCTAGOND13*%

%ADD14O,0.01575X0.07874*%
%ADD15R,0.00945X0.01968*%
%ADD16R,0.04724X0.02362*%
%ADD17R,0.01575X0.01968*%
%ADD18R,0.01181X0.04528*%
%ADD19R,0.01181X0.02559*%
%ADD20O,0.01378X0.07874*%
G04:AMPARAMS|DCode=21|XSize=78.74mil|YSize=13.78mil|CornerRadius=0mil|HoleSize=0mil|Usage=FLASHONLY|Rotation=270.000|XOffset=0mil|YOffset=0mil|HoleType=Round|Shape=Octagon|*
%AMOCTAGOND21*
4,1,8,-0.00345,-0.03937,0.00345,-0.03937,0.00689,-0.03593,0.00689,0.03593,0.00345,0.03937,-0.00345,0.03937,-0.00689,0.03593,-0.00689,-0.03593,-0.00345,-0.03937,0.0*
%
%ADD21OCTAGOND21*%

%ADD22C,0.00600*%
%ADD23C,0.01000*%
G36*
X4954Y69271D02*
X9883Y68741D01*
X14762Y67861D01*
X19566Y66635D01*
X24270Y65069D01*
X28850Y63172D01*
X33283Y60953D01*
X37546Y58423D01*
X41619Y55596D01*
X45479Y52485D01*
X49107Y49107D01*
X52485Y45479D01*
X55596Y41619D01*
X58423Y37546D01*
X60953Y33283D01*
X63172Y28850D01*
X65069Y24270D01*
X66635Y19566D01*
X67861Y14762D01*
X68741Y9883D01*
X69271Y4954D01*
X69448Y0D01*
X69271Y-4954D01*
X68741Y-9883D01*
X67861Y-14762D01*
X66635Y-19566D01*
X65069Y-24270D01*
X63172Y-28850D01*
X60953Y-33283D01*
X58423Y-37546D01*
X55596Y-41619D01*
X52485Y-45479D01*
X49107Y-49107D01*
X45479Y-52485D01*
X41619Y-55596D01*
X37546Y-58423D01*
X33283Y-60953D01*
X28850Y-63172D01*
X26992Y-63942D01*
X-26992D01*
X-28850Y-63172D01*
X-33283Y-60953D01*
X-37546Y-58423D01*
X-41619Y-55596D01*
X-45479Y-52485D01*
X-49107Y-49107D01*
X-52485Y-45479D01*
X-55596Y-41619D01*
X-58423Y-37546D01*
X-60953Y-33283D01*
X-63172Y-28850D01*
X-65069Y-24270D01*
X-66635Y-19566D01*
X-67861Y-14762D01*
X-68741Y-9883D01*
X-69271Y-4954D01*
X-69448Y0D01*
X-69271Y4954D01*
X-68741Y9883D01*
X-67861Y14762D01*
X-66635Y19566D01*
X-65069Y24270D01*
X-63172Y28850D01*
X-60953Y33283D01*
X-58423Y37546D01*
X-55596Y41619D01*
X-52485Y45479D01*
X-49107Y49107D01*
X-45479Y52485D01*
X-41619Y55596D01*
X-37546Y58423D01*
X-33283Y60953D01*
X-28850Y63172D01*
X-24270Y65069D01*
X-19566Y66635D01*
X-14762Y67861D01*
X-9883Y68741D01*
X-4954Y69271D01*
X0Y69448D01*
X4954Y69271D01*
D02*
G37*
%LPC*%
G36*
X15402Y57132D02*
X13021D01*
Y51405D01*
X15402D01*
Y57132D01*
D02*
G37*
G36*
X10349Y67611D02*
X9258D01*
Y65332D01*
Y64064D01*
X9337D01*
X9322Y64054D01*
X9308Y64024D01*
X9297Y63974D01*
X9286Y63904D01*
X9271Y63704D01*
X9258Y63064D01*
X9258D01*
Y63052D01*
X9581D01*
X9605Y62995D01*
Y42873D01*
X9605Y42873D01*
X9691Y42444D01*
X9934Y42080D01*
X16850Y35164D01*
Y32366D01*
X16847Y32347D01*
X16838Y32326D01*
X16804Y32286D01*
X16716Y32255D01*
X16216Y32284D01*
Y32284D01*
X14928D01*
Y30300D01*
X14428D01*
Y29800D01*
X12641D01*
Y28316D01*
Y27300D01*
X14428D01*
Y26800D01*
X14928D01*
Y24816D01*
X16216D01*
Y24816D01*
X16716Y24856D01*
X16777Y24835D01*
X16841Y24777D01*
X16844Y24769D01*
X16851Y24735D01*
Y24353D01*
X16823Y24292D01*
X16813Y23952D01*
X16807Y23884D01*
X16586D01*
Y23363D01*
X16548Y23272D01*
X16573Y23213D01*
X16560Y23150D01*
X16586Y23111D01*
Y21489D01*
X16560Y21450D01*
X16573Y21387D01*
X16548Y21328D01*
X16586Y21237D01*
Y20784D01*
X16586Y20716D01*
X16586Y20716D01*
X16586Y20284D01*
X16586D01*
Y19763D01*
X16548Y19672D01*
X16573Y19613D01*
X16560Y19550D01*
X16586Y19511D01*
Y17871D01*
X16555Y17818D01*
X16567Y17772D01*
X16548Y17728D01*
X16586Y17637D01*
Y17116D01*
X16870D01*
X16884Y16962D01*
X16887Y16815D01*
X16916Y16749D01*
Y15364D01*
X16887Y15298D01*
X16886Y15221D01*
X16877Y15109D01*
X16770Y15101D01*
X16694Y15099D01*
X16628Y15071D01*
X-4057D01*
X-7135Y18149D01*
Y23420D01*
X-6738Y23711D01*
X-6606Y23710D01*
X-6541Y23667D01*
X-6343Y23627D01*
Y28500D01*
Y33373D01*
X-6541Y33333D01*
X-7132Y32938D01*
X-7388Y32913D01*
X-7512Y33037D01*
X-8899D01*
X-9593Y32343D01*
Y25079D01*
X-9629Y25007D01*
X-9621Y24984D01*
X-9630Y24963D01*
X-9593Y24872D01*
Y24657D01*
X-9459Y24522D01*
X-9435Y24496D01*
X-9423Y24477D01*
X-9406Y24444D01*
X-9386Y24394D01*
X-9365Y24326D01*
X-9345Y24241D01*
X-9330Y24146D01*
X-9308Y23879D01*
X-9305Y23725D01*
X-9276Y23659D01*
Y17706D01*
X-9195Y17296D01*
X-8963Y16949D01*
X-5257Y13243D01*
X-4910Y13011D01*
X-4500Y12929D01*
X16620D01*
X16682Y12901D01*
X16845Y12895D01*
X16890Y12890D01*
X16929Y12884D01*
X16956Y12878D01*
X16965Y12876D01*
X16970Y12873D01*
X16975Y12871D01*
X16991Y12863D01*
X16999Y12863D01*
X17001Y12862D01*
X17004Y12862D01*
X17033Y12860D01*
X17036Y12859D01*
X17041Y12857D01*
X17158Y12740D01*
X17704Y12514D01*
X17696Y12018D01*
X-6739D01*
X-11082Y16362D01*
Y38020D01*
X-533Y48569D01*
X-149Y48462D01*
X-33Y48380D01*
Y47764D01*
X-4249Y43549D01*
X-4448Y43251D01*
X-4518Y42900D01*
Y33515D01*
X-5018Y33248D01*
X-5146Y33333D01*
X-5343Y33373D01*
Y28500D01*
Y23627D01*
X-5146Y23667D01*
X-4555Y24062D01*
X-4399Y24295D01*
X-4022Y24044D01*
X-3481Y23936D01*
X-2940Y24044D01*
X-2647Y24239D01*
X-2300Y24312D01*
X-1953Y24239D01*
X-1660Y24044D01*
X-1119Y23936D01*
X-578Y24044D01*
X-279Y24243D01*
X-125Y24270D01*
X294Y24005D01*
X326Y23933D01*
Y20757D01*
X396Y20405D01*
X594Y20108D01*
X2651Y18051D01*
X2949Y17852D01*
X3300Y17782D01*
X13164D01*
X13235Y17751D01*
X13239Y17751D01*
Y17116D01*
X16014D01*
Y20284D01*
X16014D01*
Y20716D01*
X16014D01*
Y23884D01*
X13239D01*
Y23249D01*
X13235Y23249D01*
X13164Y23218D01*
X5280D01*
X4640Y23858D01*
X4624Y24332D01*
X4673Y24450D01*
X4912Y24809D01*
X5020Y25350D01*
Y31650D01*
X4912Y32191D01*
X4673Y32550D01*
X4624Y32668D01*
X4595Y32680D01*
X4591Y32690D01*
X4587Y32694D01*
X4586Y32696D01*
X4578Y32723D01*
X4572Y32757D01*
X4557Y32905D01*
X4555Y32995D01*
X4523Y33067D01*
Y40825D01*
X7439Y43741D01*
X7638Y44039D01*
X7707Y44390D01*
Y63052D01*
X8258D01*
Y63073D01*
X8258Y63254D01*
X8208Y64024D01*
X8195Y64054D01*
X8180Y64064D01*
X8258D01*
Y65332D01*
Y67611D01*
X7168D01*
Y67211D01*
X-12117D01*
Y64197D01*
X-12151Y64137D01*
X-12140Y64100D01*
X-12155Y64064D01*
X-12117Y63974D01*
Y63452D01*
X-11876D01*
X-11876Y63448D01*
X-11844Y63377D01*
Y53553D01*
X-12758Y52639D01*
X-13220Y52831D01*
Y57132D01*
X-15602D01*
Y51405D01*
X-14646D01*
X-14455Y50943D01*
X-22849Y42549D01*
X-23048Y42251D01*
X-23118Y41900D01*
Y-30100D01*
X-23048Y-30451D01*
X-22849Y-30749D01*
X-13319Y-40279D01*
Y-45946D01*
X-13351Y-46015D01*
X-13351Y-46016D01*
X-13856Y-46160D01*
X-13940Y-46034D01*
X-14499Y-45661D01*
X-14658Y-45629D01*
Y-50500D01*
Y-55371D01*
X-14499Y-55339D01*
X-13940Y-54966D01*
X-13840Y-54816D01*
X-13701Y-54778D01*
X-13203Y-54763D01*
X-12904Y-54962D01*
X-12402Y-55062D01*
X-11899Y-54962D01*
X-11472Y-54677D01*
X-11301Y-54422D01*
X-11288Y-54416D01*
X-10759D01*
X-10746Y-54422D01*
X-10575Y-54677D01*
X-10149Y-54962D01*
X-9646Y-55062D01*
X-9143Y-54962D01*
X-8716Y-54677D01*
X-8546Y-54422D01*
X-8532Y-54416D01*
X-8003D01*
X-7990Y-54422D01*
X-7819Y-54677D01*
X-7393Y-54962D01*
X-6890Y-55062D01*
X-6387Y-54962D01*
X-5960Y-54677D01*
X-5790Y-54422D01*
X-5776Y-54416D01*
X-5248D01*
X-5234Y-54422D01*
X-5063Y-54677D01*
X-4637Y-54962D01*
X-4134Y-55062D01*
X-3631Y-54962D01*
X-3205Y-54677D01*
X-3034Y-54422D01*
X-3020Y-54416D01*
X-2492D01*
X-2478Y-54422D01*
X-2307Y-54677D01*
X-1881Y-54962D01*
X-1378Y-55062D01*
X-875Y-54962D01*
X-577Y-54763D01*
X-79Y-54778D01*
X60Y-54816D01*
X160Y-54966D01*
X719Y-55339D01*
X878Y-55371D01*
Y-50500D01*
Y-45629D01*
X719Y-45661D01*
X160Y-46034D01*
X74Y-46163D01*
X71Y-46163D01*
X-429Y-46027D01*
X-460Y-45954D01*
Y-36822D01*
X-530Y-36471D01*
X-729Y-36173D01*
X-12982Y-23920D01*
Y14959D01*
X-12482Y15166D01*
X-7767Y10451D01*
X-7470Y10252D01*
X-7119Y10182D01*
X23975D01*
Y8940D01*
X25447D01*
Y7940D01*
X23975D01*
Y6456D01*
X25038D01*
Y5200D01*
X28400D01*
X31762D01*
Y6456D01*
X32825D01*
Y7940D01*
X31353D01*
Y8440D01*
X30853D01*
Y10424D01*
X30451D01*
Y11648D01*
X30479Y11714D01*
X30482Y11871D01*
X30490Y11991D01*
X30493Y12014D01*
X30763D01*
Y12536D01*
X30801Y12626D01*
X30782Y12673D01*
X30794Y12721D01*
X30763Y12772D01*
Y14410D01*
X30789Y14449D01*
X30776Y14512D01*
X30801Y14571D01*
X30763Y14661D01*
Y15079D01*
X30763Y15183D01*
X30763D01*
Y15579D01*
X30763D01*
Y16100D01*
X30801Y16191D01*
X30776Y16250D01*
X30789Y16312D01*
X30763Y16352D01*
Y17967D01*
X30787Y18002D01*
X30774Y18071D01*
X30801Y18135D01*
X30763Y18225D01*
Y18747D01*
X30571D01*
X30552Y18977D01*
X30549Y19144D01*
X30522Y19208D01*
Y19900D01*
X30436Y20329D01*
X30193Y20693D01*
X30193Y20693D01*
X27793Y23093D01*
X27429Y23336D01*
X27000Y23422D01*
X27000Y23422D01*
X19827D01*
X19765Y23449D01*
X19594Y23453D01*
X19466Y23464D01*
X19369Y23479D01*
X19361Y23482D01*
Y23884D01*
X19140D01*
X19124Y24110D01*
X19122Y24282D01*
X19094Y24346D01*
Y24747D01*
X19121Y24808D01*
X19132Y25149D01*
X19138Y25216D01*
X19359D01*
Y25738D01*
X19396Y25828D01*
X19372Y25887D01*
X19385Y25950D01*
X19359Y25990D01*
Y27611D01*
X19385Y27651D01*
X19372Y27713D01*
X19396Y27773D01*
X19359Y27863D01*
Y28216D01*
X19359Y28385D01*
X19359D01*
Y28716D01*
X19359D01*
Y29238D01*
X19396Y29328D01*
X19372Y29387D01*
X19385Y29450D01*
X19359Y29489D01*
Y31111D01*
X19385Y31151D01*
X19372Y31213D01*
X19396Y31273D01*
X19359Y31363D01*
Y31885D01*
X19139D01*
X19123Y32110D01*
X19121Y32282D01*
X19093Y32346D01*
Y35629D01*
X19093Y35629D01*
X19007Y36058D01*
X18764Y36422D01*
X18764Y36422D01*
X11848Y43338D01*
Y62988D01*
X11876Y63051D01*
X11884Y63452D01*
X11917D01*
Y63900D01*
X11942Y63938D01*
X11930Y64003D01*
X11955Y64064D01*
X11917Y64154D01*
Y67211D01*
X10349D01*
Y67611D01*
D02*
G37*
G36*
X13928Y32284D02*
X12641D01*
Y30800D01*
X13928D01*
Y32284D01*
D02*
G37*
G36*
Y26300D02*
X12641D01*
Y24816D01*
X13928D01*
Y26300D01*
D02*
G37*
G36*
X32825Y10424D02*
X31853D01*
Y8940D01*
X32825D01*
Y10424D01*
D02*
G37*
G36*
X18296Y8686D02*
X17704D01*
X17158Y8460D01*
X16740Y8042D01*
X16514Y7496D01*
Y6904D01*
X16740Y6358D01*
X16858Y6241D01*
X16859Y6236D01*
X16860Y6233D01*
X16862Y6204D01*
X16862Y6201D01*
X16863Y6199D01*
X16863Y6191D01*
X16871Y6176D01*
X16872Y6170D01*
X16876Y6165D01*
X16878Y6156D01*
X16884Y6129D01*
X16889Y6097D01*
X16899Y5970D01*
X16901Y5894D01*
X16929Y5828D01*
Y4343D01*
X8889Y-3697D01*
X8657Y-4045D01*
X8575Y-4454D01*
Y-45758D01*
X8546Y-45823D01*
X8539Y-46134D01*
X8532Y-46247D01*
X8525Y-46300D01*
X8059Y-46575D01*
X7975Y-46556D01*
X7819Y-46323D01*
X7393Y-46038D01*
X6890Y-45938D01*
X6387Y-46038D01*
X6089Y-46237D01*
X5590Y-46222D01*
X5452Y-46184D01*
X5351Y-46034D01*
X4793Y-45661D01*
X4634Y-45629D01*
Y-50500D01*
Y-55371D01*
X4793Y-55339D01*
X5287Y-55009D01*
X5325Y-55010D01*
X5580Y-55082D01*
X5801Y-55193D01*
X5819Y-55236D01*
Y-56785D01*
X5819Y-56785D01*
X5901Y-57195D01*
X6133Y-57542D01*
X7139Y-58548D01*
X7486Y-58780D01*
X7896Y-58862D01*
X7896Y-58862D01*
X8517D01*
X8927Y-58780D01*
X9274Y-58548D01*
X10403Y-57420D01*
X10635Y-57073D01*
X10716Y-56663D01*
Y-55242D01*
X10745Y-55177D01*
X10752Y-54866D01*
X10759Y-54753D01*
X10766Y-54700D01*
X11233Y-54425D01*
X11317Y-54444D01*
X11472Y-54677D01*
X11899Y-54962D01*
X12402Y-55062D01*
X12904Y-54962D01*
X13075Y-54849D01*
X13335Y-54679D01*
X13780Y-54905D01*
X14313Y-55437D01*
X14658D01*
Y-50500D01*
Y-45563D01*
X14313D01*
X14051Y-45825D01*
X13820Y-45803D01*
X13665Y-45755D01*
X13523Y-45646D01*
Y-23563D01*
X28799Y-8287D01*
X28799Y-8287D01*
X29042Y-7923D01*
X29128Y-7494D01*
X29128Y-7494D01*
Y-6188D01*
X29155Y-6127D01*
X29162Y-5902D01*
X29410Y-5718D01*
X29894Y-5695D01*
X29965Y-5719D01*
Y-5719D01*
X32740D01*
Y-3308D01*
X32771Y-3256D01*
X32759Y-3208D01*
X32777Y-3163D01*
X32740Y-3072D01*
Y-2551D01*
X32469D01*
X32455Y-2398D01*
X32452Y-2250D01*
X32423Y-2184D01*
Y-983D01*
X32452Y-913D01*
X32452Y-593D01*
X32459Y-73D01*
X32459Y-64D01*
X32459Y-63D01*
X32459Y-56D01*
X32452Y-38D01*
X32463Y-12D01*
X32425Y78D01*
Y2544D01*
X31762D01*
Y4200D01*
X28400D01*
X25038D01*
Y2741D01*
X24878D01*
X24419Y2551D01*
X24412Y2544D01*
X24375D01*
Y2507D01*
X24170Y2302D01*
X23979Y1843D01*
Y-4629D01*
X24170Y-5088D01*
X24841Y-5759D01*
X25300Y-5949D01*
X26854D01*
X26857Y-6117D01*
X26885Y-6181D01*
Y-7029D01*
X11609Y-22305D01*
X11365Y-22669D01*
X11280Y-23098D01*
X11280Y-23099D01*
Y-45414D01*
X10780Y-45595D01*
X10716Y-45519D01*
Y-4898D01*
X18757Y3143D01*
X18989Y3490D01*
X19071Y3900D01*
X19071Y3900D01*
Y5820D01*
X19099Y5882D01*
X19105Y6045D01*
X19110Y6089D01*
X19116Y6129D01*
X19122Y6156D01*
X19124Y6165D01*
X19128Y6170D01*
X19129Y6176D01*
X19137Y6191D01*
X19137Y6199D01*
X19138Y6201D01*
X19138Y6204D01*
X19140Y6233D01*
X19141Y6236D01*
X19142Y6241D01*
X19260Y6358D01*
X19486Y6904D01*
Y7496D01*
X19260Y8042D01*
X18842Y8460D01*
X18296Y8686D01*
D02*
G37*
G36*
X16002Y-45563D02*
X15657D01*
Y-50000D01*
X16846D01*
Y-46407D01*
X16002Y-45563D01*
D02*
G37*
G36*
X-15657Y-45629D02*
X-15816Y-45661D01*
X-16375Y-46034D01*
X-16748Y-46593D01*
X-16880Y-47252D01*
Y-50000D01*
X-15657D01*
Y-45629D01*
D02*
G37*
G36*
X1878D02*
Y-50500D01*
Y-55371D01*
X2037Y-55339D01*
X2596Y-54966D01*
X2916D01*
X3475Y-55339D01*
X3634Y-55371D01*
Y-50500D01*
Y-45629D01*
X3475Y-45661D01*
X2916Y-46034D01*
X2596D01*
X2037Y-45661D01*
X1878Y-45629D01*
D02*
G37*
G36*
X-15657Y-51000D02*
X-16880D01*
Y-53748D01*
X-16748Y-54407D01*
X-16375Y-54966D01*
X-15816Y-55339D01*
X-15657Y-55371D01*
Y-51000D01*
D02*
G37*
G36*
X16846D02*
X15657D01*
Y-55437D01*
X16002D01*
X16846Y-54593D01*
Y-51000D01*
D02*
G37*
%LPD*%
G36*
X7315Y64058D02*
X7268Y64040D01*
X7226Y64010D01*
X7190Y63968D01*
X7159Y63914D01*
X7134Y63848D01*
X7115Y63770D01*
X7101Y63680D01*
X7092Y63578D01*
X7090Y63464D01*
X6490D01*
X6487Y63578D01*
X6479Y63680D01*
X6465Y63770D01*
X6445Y63848D01*
X6420Y63914D01*
X6390Y63968D01*
X6353Y64010D01*
X6312Y64040D01*
X6264Y64058D01*
X6211Y64064D01*
X7368D01*
X7315Y64058D01*
D02*
G37*
G36*
X5347D02*
X5300Y64040D01*
X5258Y64010D01*
X5221Y63968D01*
X5191Y63914D01*
X5166Y63848D01*
X5146Y63770D01*
X5132Y63680D01*
X5124Y63578D01*
X5121Y63464D01*
X4521D01*
X4518Y63578D01*
X4510Y63680D01*
X4496Y63770D01*
X4477Y63848D01*
X4452Y63914D01*
X4421Y63968D01*
X4385Y64010D01*
X4343Y64040D01*
X4296Y64058D01*
X4243Y64064D01*
X5400D01*
X5347Y64058D01*
D02*
G37*
G36*
X3378D02*
X3331Y64040D01*
X3289Y64010D01*
X3253Y63968D01*
X3222Y63914D01*
X3197Y63848D01*
X3178Y63770D01*
X3164Y63680D01*
X3156Y63578D01*
X3153Y63464D01*
X2553D01*
X2550Y63578D01*
X2542Y63680D01*
X2528Y63770D01*
X2508Y63848D01*
X2483Y63914D01*
X2452Y63968D01*
X2416Y64010D01*
X2375Y64040D01*
X2327Y64058D01*
X2274Y64064D01*
X3431D01*
X3378Y64058D01*
D02*
G37*
G36*
X1410D02*
X1362Y64040D01*
X1321Y64010D01*
X1285Y63968D01*
X1254Y63914D01*
X1229Y63848D01*
X1209Y63770D01*
X1195Y63680D01*
X1187Y63578D01*
X1184Y63464D01*
X584D01*
X581Y63578D01*
X573Y63680D01*
X559Y63770D01*
X540Y63848D01*
X515Y63914D01*
X484Y63968D01*
X448Y64010D01*
X406Y64040D01*
X359Y64058D01*
X306Y64064D01*
X1463D01*
X1410Y64058D01*
D02*
G37*
G36*
X-559D02*
X-606Y64040D01*
X-648Y64010D01*
X-684Y63968D01*
X-715Y63914D01*
X-740Y63848D01*
X-759Y63770D01*
X-773Y63680D01*
X-781Y63578D01*
X-784Y63464D01*
X-1384D01*
X-1387Y63578D01*
X-1395Y63680D01*
X-1409Y63770D01*
X-1429Y63848D01*
X-1454Y63914D01*
X-1484Y63968D01*
X-1521Y64010D01*
X-1562Y64040D01*
X-1610Y64058D01*
X-1663Y64064D01*
X-506D01*
X-559Y64058D01*
D02*
G37*
G36*
X-2527D02*
X-2575Y64040D01*
X-2616Y64010D01*
X-2653Y63968D01*
X-2683Y63914D01*
X-2708Y63848D01*
X-2728Y63770D01*
X-2742Y63680D01*
X-2750Y63578D01*
X-2753Y63464D01*
X-3353D01*
X-3356Y63578D01*
X-3364Y63680D01*
X-3378Y63770D01*
X-3397Y63848D01*
X-3422Y63914D01*
X-3453Y63968D01*
X-3489Y64010D01*
X-3531Y64040D01*
X-3578Y64058D01*
X-3631Y64064D01*
X-2474D01*
X-2527Y64058D01*
D02*
G37*
G36*
X-4496D02*
X-4543Y64040D01*
X-4585Y64010D01*
X-4621Y63968D01*
X-4652Y63914D01*
X-4677Y63848D01*
X-4696Y63770D01*
X-4710Y63680D01*
X-4719Y63578D01*
X-4721Y63464D01*
X-5321D01*
X-5324Y63578D01*
X-5332Y63680D01*
X-5346Y63770D01*
X-5366Y63848D01*
X-5391Y63914D01*
X-5421Y63968D01*
X-5458Y64010D01*
X-5500Y64040D01*
X-5547Y64058D01*
X-5600Y64064D01*
X-4443D01*
X-4496Y64058D01*
D02*
G37*
G36*
X-6464D02*
X-6511Y64040D01*
X-6553Y64010D01*
X-6589Y63968D01*
X-6620Y63914D01*
X-6645Y63848D01*
X-6665Y63770D01*
X-6679Y63680D01*
X-6687Y63578D01*
X-6690Y63464D01*
X-7290D01*
X-7293Y63578D01*
X-7301Y63680D01*
X-7315Y63770D01*
X-7334Y63848D01*
X-7359Y63914D01*
X-7390Y63968D01*
X-7426Y64010D01*
X-7468Y64040D01*
X-7515Y64058D01*
X-7568Y64064D01*
X-6411D01*
X-6464Y64058D01*
D02*
G37*
G36*
X-8433D02*
X-8480Y64040D01*
X-8522Y64010D01*
X-8558Y63968D01*
X-8589Y63914D01*
X-8614Y63848D01*
X-8633Y63770D01*
X-8647Y63680D01*
X-8655Y63578D01*
X-8658Y63464D01*
X-9258D01*
X-9261Y63578D01*
X-9269Y63680D01*
X-9283Y63770D01*
X-9303Y63848D01*
X-9328Y63914D01*
X-9358Y63968D01*
X-9395Y64010D01*
X-9437Y64040D01*
X-9484Y64058D01*
X-9537Y64064D01*
X-8380D01*
X-8433Y64058D01*
D02*
G37*
G36*
X-10401D02*
X-10448Y64040D01*
X-10490Y64010D01*
X-10526Y63968D01*
X-10557Y63914D01*
X-10582Y63848D01*
X-10602Y63770D01*
X-10616Y63680D01*
X-10624Y63578D01*
X-10627Y63464D01*
X-11227D01*
X-11230Y63578D01*
X-11238Y63680D01*
X-11252Y63770D01*
X-11271Y63848D01*
X-11296Y63914D01*
X-11327Y63968D01*
X-11363Y64010D01*
X-11405Y64040D01*
X-11452Y64058D01*
X-11505Y64064D01*
X-10348D01*
X-10401Y64058D01*
D02*
G37*
G36*
X11290Y64054D02*
X11277Y64024D01*
X11265Y63974D01*
X11255Y63904D01*
X11239Y63704D01*
X11227Y63064D01*
X10227D01*
X10226Y63254D01*
X10176Y64024D01*
X10163Y64054D01*
X10148Y64064D01*
X11305D01*
X11290Y64054D01*
D02*
G37*
G36*
X3908Y32865D02*
X3929Y32660D01*
X3947Y32570D01*
X3970Y32488D01*
X3999Y32415D01*
X4032Y32351D01*
X4071Y32295D01*
X4115Y32247D01*
X4165Y32209D01*
X3046D01*
X3096Y32247D01*
X3140Y32295D01*
X3179Y32351D01*
X3212Y32415D01*
X3241Y32488D01*
X3264Y32570D01*
X3282Y32660D01*
X3295Y32758D01*
X3303Y32865D01*
X3306Y32980D01*
X3906D01*
X3908Y32865D01*
D02*
G37*
G36*
X1546D02*
X1567Y32660D01*
X1585Y32570D01*
X1608Y32488D01*
X1637Y32415D01*
X1670Y32351D01*
X1709Y32295D01*
X1753Y32247D01*
X1802Y32209D01*
X684D01*
X734Y32247D01*
X777Y32295D01*
X816Y32351D01*
X850Y32415D01*
X879Y32488D01*
X902Y32570D01*
X920Y32660D01*
X933Y32758D01*
X941Y32865D01*
X943Y32980D01*
X1543D01*
X1546Y32865D01*
D02*
G37*
G36*
X-816D02*
X-796Y32660D01*
X-777Y32570D01*
X-754Y32488D01*
X-726Y32415D01*
X-692Y32351D01*
X-653Y32295D01*
X-609Y32247D01*
X-560Y32209D01*
X-1678D01*
X-1629Y32247D01*
X-1585Y32295D01*
X-1546Y32351D01*
X-1512Y32415D01*
X-1484Y32488D01*
X-1460Y32570D01*
X-1442Y32660D01*
X-1429Y32758D01*
X-1421Y32865D01*
X-1419Y32980D01*
X-819D01*
X-816Y32865D01*
D02*
G37*
G36*
X-3297Y32848D02*
X-3274Y32590D01*
X-3253Y32488D01*
X-3227Y32403D01*
X-3194Y32337D01*
X-3156Y32289D01*
X-3112Y32258D01*
X-3062Y32245D01*
X-3007Y32251D01*
X-4190Y31963D01*
X-4135Y31985D01*
X-4086Y32023D01*
X-4042Y32077D01*
X-4004Y32147D01*
X-3972Y32233D01*
X-3946Y32335D01*
X-3926Y32453D01*
X-3912Y32587D01*
X-3900Y32902D01*
X-3300Y33004D01*
X-3297Y32848D01*
D02*
G37*
G36*
X18474Y32083D02*
X18496Y31763D01*
X18515Y31633D01*
X18540Y31523D01*
X18571Y31433D01*
X18606Y31363D01*
X18648Y31313D01*
X18694Y31283D01*
X18747Y31273D01*
X17196D01*
X17248Y31283D01*
X17295Y31313D01*
X17336Y31363D01*
X17372Y31433D01*
X17402Y31523D01*
X17427Y31633D01*
X17447Y31763D01*
X17460Y31913D01*
X17471Y32273D01*
X18471D01*
X18474Y32083D01*
D02*
G37*
G36*
X18694Y29318D02*
X18648Y29288D01*
X18606Y29238D01*
X18571Y29168D01*
X18540Y29078D01*
X18515Y28968D01*
X18496Y28838D01*
X18482Y28688D01*
X18478Y28532D01*
X18496Y28263D01*
X18515Y28133D01*
X18540Y28023D01*
X18571Y27933D01*
X18606Y27863D01*
X18648Y27813D01*
X18694Y27783D01*
X18747Y27773D01*
X17196D01*
X17248Y27783D01*
X17295Y27813D01*
X17336Y27863D01*
X17372Y27933D01*
X17402Y28023D01*
X17427Y28133D01*
X17447Y28263D01*
X17460Y28413D01*
X17465Y28569D01*
X17447Y28838D01*
X17427Y28968D01*
X17402Y29078D01*
X17372Y29168D01*
X17336Y29238D01*
X17295Y29288D01*
X17248Y29318D01*
X17196Y29328D01*
X18747D01*
X18694Y29318D01*
D02*
G37*
G36*
X18695Y25818D02*
X18648Y25788D01*
X18607Y25738D01*
X18571Y25668D01*
X18541Y25578D01*
X18516Y25468D01*
X18497Y25338D01*
X18483Y25188D01*
X18472Y24828D01*
X17472D01*
X17470Y25018D01*
X17447Y25338D01*
X17428Y25468D01*
X17403Y25578D01*
X17373Y25668D01*
X17337Y25738D01*
X17295Y25788D01*
X17248Y25818D01*
X17196Y25828D01*
X18747D01*
X18695Y25818D01*
D02*
G37*
G36*
X4115Y24753D02*
X4071Y24705D01*
X4032Y24649D01*
X3999Y24585D01*
X3970Y24512D01*
X3947Y24430D01*
X3929Y24340D01*
X3916Y24242D01*
X3908Y24135D01*
X3906Y24020D01*
X3306D01*
X3303Y24135D01*
X3282Y24340D01*
X3264Y24430D01*
X3241Y24512D01*
X3212Y24585D01*
X3179Y24649D01*
X3140Y24705D01*
X3096Y24753D01*
X3046Y24791D01*
X4165D01*
X4115Y24753D01*
D02*
G37*
G36*
X1753D02*
X1709Y24705D01*
X1670Y24649D01*
X1637Y24585D01*
X1608Y24512D01*
X1585Y24430D01*
X1567Y24340D01*
X1554Y24242D01*
X1546Y24135D01*
X1543Y24020D01*
X943D01*
X941Y24135D01*
X920Y24340D01*
X902Y24430D01*
X879Y24512D01*
X850Y24585D01*
X816Y24649D01*
X777Y24705D01*
X734Y24753D01*
X684Y24791D01*
X1802D01*
X1753Y24753D01*
D02*
G37*
G36*
X-7492Y24892D02*
X-7547Y24810D01*
X-7596Y24716D01*
X-7638Y24610D01*
X-7674Y24494D01*
X-7703Y24365D01*
X-7726Y24226D01*
X-7743Y24074D01*
X-7756Y23737D01*
X-8655D01*
X-8659Y23911D01*
X-8685Y24226D01*
X-8708Y24365D01*
X-8737Y24494D01*
X-8773Y24610D01*
X-8815Y24716D01*
X-8864Y24810D01*
X-8919Y24892D01*
X-8981Y24963D01*
X-7430D01*
X-7492Y24892D01*
D02*
G37*
G36*
X18475Y24082D02*
X18497Y23762D01*
X18517Y23632D01*
X18541Y23522D01*
X18572Y23432D01*
X18608Y23362D01*
X18649Y23312D01*
X18696Y23282D01*
X18749Y23272D01*
X17198D01*
X17250Y23282D01*
X17297Y23312D01*
X17338Y23362D01*
X17373Y23432D01*
X17404Y23522D01*
X17428Y23632D01*
X17448Y23762D01*
X17461Y23912D01*
X17472Y24272D01*
X18472D01*
X18475Y24082D01*
D02*
G37*
G36*
X13863Y21700D02*
X13857Y21757D01*
X13839Y21808D01*
X13808Y21853D01*
X13766Y21892D01*
X13710Y21925D01*
X13643Y21952D01*
X13564Y21973D01*
X13472Y21988D01*
X13368Y21997D01*
X13251Y22000D01*
Y22600D01*
X13368Y22603D01*
X13472Y22612D01*
X13564Y22627D01*
X13643Y22648D01*
X13710Y22675D01*
X13766Y22708D01*
X13808Y22747D01*
X13839Y22792D01*
X13857Y22843D01*
X13863Y22900D01*
Y21700D01*
D02*
G37*
G36*
X18759Y23182D02*
X18789Y23102D01*
X18839Y23031D01*
X18909Y22970D01*
X18999Y22918D01*
X19109Y22876D01*
X19239Y22842D01*
X19389Y22819D01*
X19559Y22805D01*
X19749Y22800D01*
Y21800D01*
X19559Y21795D01*
X19389Y21781D01*
X19239Y21757D01*
X19109Y21724D01*
X18999Y21682D01*
X18909Y21630D01*
X18839Y21569D01*
X18789Y21498D01*
X18759Y21418D01*
X18749Y21328D01*
X18696Y21318D01*
X18650Y21288D01*
X18608Y21238D01*
X18572Y21168D01*
X18542Y21078D01*
X18517Y20968D01*
X18498Y20838D01*
X18484Y20688D01*
X18477Y20462D01*
X18498Y20162D01*
X18517Y20032D01*
X18542Y19922D01*
X18572Y19832D01*
X18608Y19762D01*
X18650Y19712D01*
X18696Y19682D01*
X18749Y19672D01*
X17198D01*
X17250Y19682D01*
X17297Y19712D01*
X17338Y19762D01*
X17374Y19832D01*
X17404Y19922D01*
X17429Y20032D01*
X17448Y20162D01*
X17462Y20312D01*
X17469Y20538D01*
X17448Y20838D01*
X17429Y20968D01*
X17404Y21078D01*
X17374Y21168D01*
X17338Y21238D01*
X17297Y21288D01*
X17250Y21318D01*
X17198Y21328D01*
X18749D01*
Y23272D01*
X18759Y23182D01*
D02*
G37*
G36*
X28092Y19622D02*
X28001Y19116D01*
X27620Y19147D01*
Y19147D01*
X26333D01*
Y17163D01*
X25833D01*
Y16662D01*
X24046D01*
Y15178D01*
Y14098D01*
X25833D01*
Y13098D01*
X24046D01*
Y12018D01*
X18304D01*
X18296Y12514D01*
X18842Y12740D01*
X19260Y13158D01*
X19486Y13704D01*
Y14296D01*
X19260Y14842D01*
X19130Y14972D01*
X19127Y14980D01*
X19124Y15006D01*
X19124Y15013D01*
X19123Y15016D01*
X19123Y15024D01*
X19114Y15041D01*
X19112Y15046D01*
X19110Y15050D01*
X19108Y15056D01*
X19102Y15082D01*
X19097Y15113D01*
X19087Y15239D01*
X19086Y15314D01*
X19057Y15380D01*
Y16750D01*
X19086Y16816D01*
X19089Y16973D01*
X19096Y17095D01*
X19099Y17116D01*
X19361D01*
Y17637D01*
X19398Y17728D01*
X19378Y17775D01*
X19391Y17825D01*
X19361Y17875D01*
Y19511D01*
X19387Y19550D01*
X19374Y19613D01*
X19398Y19672D01*
X19361Y19763D01*
Y20216D01*
X19361Y20284D01*
X19361D01*
Y20716D01*
X19539Y21142D01*
X19594Y21147D01*
X19765Y21151D01*
X19827Y21179D01*
X26535D01*
X28092Y19622D01*
D02*
G37*
G36*
X29902Y18945D02*
X29940Y18495D01*
X29963Y18385D01*
X29991Y18295D01*
X30023Y18225D01*
X30061Y18175D01*
X30104Y18145D01*
X30151Y18135D01*
X28601D01*
X28657Y18145D01*
X28708Y18175D01*
X28753Y18225D01*
X28792Y18295D01*
X28825Y18385D01*
X28852Y18495D01*
X28873Y18625D01*
X28888Y18775D01*
X28900Y19135D01*
X29900D01*
X29902Y18945D01*
D02*
G37*
G36*
X13863Y18100D02*
X13857Y18157D01*
X13839Y18208D01*
X13808Y18253D01*
X13766Y18292D01*
X13710Y18325D01*
X13643Y18352D01*
X13564Y18373D01*
X13472Y18388D01*
X13368Y18397D01*
X13251Y18400D01*
Y19000D01*
X13368Y19003D01*
X13472Y19012D01*
X13564Y19027D01*
X13643Y19048D01*
X13710Y19075D01*
X13766Y19108D01*
X13808Y19147D01*
X13839Y19192D01*
X13857Y19243D01*
X13863Y19300D01*
Y18100D01*
D02*
G37*
G36*
X18689Y17719D02*
X18636Y17692D01*
X18589Y17647D01*
X18549Y17584D01*
X18515Y17503D01*
X18486Y17404D01*
X18465Y17287D01*
X18449Y17152D01*
X18440Y16999D01*
X18437Y16828D01*
X17537D01*
X17533Y16999D01*
X17506Y17287D01*
X17482Y17404D01*
X17452Y17503D01*
X17415Y17584D01*
X17371Y17647D01*
X17320Y17692D01*
X17262Y17719D01*
X17198Y17728D01*
X18749D01*
X18689Y17719D01*
D02*
G37*
G36*
X18438Y15206D02*
X18452Y15035D01*
X18464Y14959D01*
X18480Y14890D01*
X18499Y14827D01*
X18522Y14771D01*
X18548Y14721D01*
X18577Y14678D01*
X18610Y14642D01*
X17370Y14623D01*
X17402Y14660D01*
X17430Y14703D01*
X17455Y14753D01*
X17477Y14810D01*
X17495Y14873D01*
X17510Y14942D01*
X17522Y15019D01*
X17535Y15191D01*
X17537Y15286D01*
X18437Y15302D01*
X18438Y15206D01*
D02*
G37*
G36*
X30099Y16181D02*
X30052Y16151D01*
X30011Y16101D01*
X29975Y16031D01*
X29945Y15941D01*
X29920Y15831D01*
X29901Y15701D01*
X29887Y15551D01*
X29881Y15350D01*
X29901Y15061D01*
X29920Y14931D01*
X29945Y14821D01*
X29975Y14731D01*
X30011Y14661D01*
X30052Y14611D01*
X30099Y14581D01*
X30151Y14571D01*
X28601D01*
X28653Y14581D01*
X28700Y14611D01*
X28741Y14661D01*
X28777Y14731D01*
X28807Y14821D01*
X28832Y14931D01*
X28851Y15061D01*
X28865Y15211D01*
X28871Y15412D01*
X28851Y15701D01*
X28832Y15831D01*
X28807Y15941D01*
X28777Y16031D01*
X28741Y16101D01*
X28700Y16151D01*
X28653Y16181D01*
X28601Y16191D01*
X30151D01*
X30099Y16181D01*
D02*
G37*
G36*
X17367Y13380D02*
X17331Y13412D01*
X17288Y13441D01*
X17238Y13467D01*
X17181Y13489D01*
X17119Y13508D01*
X17049Y13523D01*
X16973Y13535D01*
X16890Y13543D01*
X16705Y13550D01*
Y14450D01*
X16801Y14452D01*
X16973Y14465D01*
X17049Y14477D01*
X17119Y14492D01*
X17181Y14511D01*
X17238Y14533D01*
X17288Y14559D01*
X17331Y14588D01*
X17367Y14620D01*
Y13380D01*
D02*
G37*
G36*
X30090Y12617D02*
X30036Y12590D01*
X29987Y12545D01*
X29946Y12482D01*
X29910Y12401D01*
X29882Y12302D01*
X29859Y12185D01*
X29843Y12050D01*
X29833Y11897D01*
X29830Y11726D01*
X28930D01*
X28927Y11897D01*
X28900Y12185D01*
X28877Y12302D01*
X28848Y12401D01*
X28811Y12482D01*
X28769Y12545D01*
X28719Y12590D01*
X28663Y12617D01*
X28601Y12626D01*
X30151D01*
X30090Y12617D01*
D02*
G37*
G36*
X29845Y9412D02*
X28924D01*
X28925Y9421D01*
X28926Y9448D01*
X28930Y10312D01*
X29830D01*
X29845Y9412D01*
D02*
G37*
G36*
X27717Y9898D02*
X27730Y9706D01*
X27741Y9628D01*
X27756Y9562D01*
X27773Y9508D01*
X27794Y9466D01*
X27818Y9436D01*
X27846Y9418D01*
X27876Y9412D01*
X26955D01*
X26986Y9418D01*
X27013Y9436D01*
X27037Y9466D01*
X27058Y9508D01*
X27076Y9562D01*
X27090Y9628D01*
X27101Y9706D01*
X27109Y9796D01*
X27116Y10012D01*
X27716D01*
X27717Y9898D01*
D02*
G37*
G36*
X-1075Y-46209D02*
X-1052Y-46497D01*
X-1032Y-46614D01*
X-1005Y-46713D01*
X-974Y-46794D01*
X-936Y-46857D01*
X-892Y-46902D01*
X-843Y-46929D01*
X-788Y-46938D01*
X-1968D01*
X-1913Y-46929D01*
X-1864Y-46902D01*
X-1820Y-46857D01*
X-1782Y-46794D01*
X-1750Y-46713D01*
X-1724Y-46614D01*
X-1704Y-46497D01*
X-1689Y-46362D01*
X-1678Y-46038D01*
X-1078D01*
X-1075Y-46209D01*
D02*
G37*
G36*
X-3831D02*
X-3808Y-46497D01*
X-3788Y-46614D01*
X-3761Y-46713D01*
X-3729Y-46794D01*
X-3692Y-46857D01*
X-3648Y-46902D01*
X-3599Y-46929D01*
X-3544Y-46938D01*
X-4724D01*
X-4669Y-46929D01*
X-4620Y-46902D01*
X-4576Y-46857D01*
X-4538Y-46794D01*
X-4506Y-46713D01*
X-4480Y-46614D01*
X-4460Y-46497D01*
X-4445Y-46362D01*
X-4434Y-46038D01*
X-3834D01*
X-3831Y-46209D01*
D02*
G37*
G36*
X-6587D02*
X-6564Y-46497D01*
X-6543Y-46614D01*
X-6517Y-46713D01*
X-6485Y-46794D01*
X-6448Y-46857D01*
X-6404Y-46902D01*
X-6355Y-46929D01*
X-6300Y-46938D01*
X-7480D01*
X-7425Y-46929D01*
X-7375Y-46902D01*
X-7332Y-46857D01*
X-7294Y-46794D01*
X-7262Y-46713D01*
X-7236Y-46614D01*
X-7216Y-46497D01*
X-7201Y-46362D01*
X-7190Y-46038D01*
X-6590D01*
X-6587Y-46209D01*
D02*
G37*
G36*
X-9343D02*
X-9320Y-46497D01*
X-9299Y-46614D01*
X-9273Y-46713D01*
X-9241Y-46794D01*
X-9204Y-46857D01*
X-9160Y-46902D01*
X-9111Y-46929D01*
X-9056Y-46938D01*
X-10236D01*
X-10181Y-46929D01*
X-10131Y-46902D01*
X-10088Y-46857D01*
X-10050Y-46794D01*
X-10018Y-46713D01*
X-9992Y-46614D01*
X-9972Y-46497D01*
X-9957Y-46362D01*
X-9946Y-46038D01*
X-9346D01*
X-9343Y-46209D01*
D02*
G37*
G36*
X-12099D02*
X-12076Y-46497D01*
X-12055Y-46614D01*
X-12029Y-46713D01*
X-11997Y-46794D01*
X-11959Y-46857D01*
X-11916Y-46902D01*
X-11867Y-46929D01*
X-11812Y-46938D01*
X-12992D01*
X-12936Y-46929D01*
X-12887Y-46902D01*
X-12844Y-46857D01*
X-12806Y-46794D01*
X-12774Y-46713D01*
X-12748Y-46614D01*
X-12728Y-46497D01*
X-12713Y-46362D01*
X-12702Y-46038D01*
X-12102D01*
X-12099Y-46209D01*
D02*
G37*
%LPC*%
G36*
X25333Y19147D02*
X24046D01*
Y17662D01*
X25333D01*
Y19147D01*
D02*
G37*
%LPD*%
G36*
X18588Y6531D02*
X18559Y6488D01*
X18533Y6438D01*
X18511Y6381D01*
X18493Y6319D01*
X18477Y6249D01*
X18465Y6173D01*
X18457Y6090D01*
X18450Y5906D01*
X17550D01*
X17548Y6001D01*
X17535Y6173D01*
X17523Y6249D01*
X17507Y6319D01*
X17489Y6381D01*
X17467Y6438D01*
X17441Y6488D01*
X17412Y6531D01*
X17380Y6567D01*
X18620D01*
X18588Y6531D01*
D02*
G37*
G36*
X31811Y-21D02*
X31809Y-48D01*
X31803Y-588D01*
X31803Y-912D01*
X30903D01*
X30892Y-12D01*
X31813D01*
X31811Y-21D01*
D02*
G37*
G36*
X31806Y-2434D02*
X31832Y-2722D01*
X31855Y-2839D01*
X31884Y-2938D01*
X31920Y-3019D01*
X31962Y-3082D01*
X32011Y-3127D01*
X32066Y-3154D01*
X32128Y-3163D01*
X30577D01*
X30639Y-3154D01*
X30694Y-3127D01*
X30743Y-3082D01*
X30786Y-3019D01*
X30821Y-2938D01*
X30851Y-2839D01*
X30873Y-2722D01*
X30890Y-2587D01*
X30899Y-2434D01*
X30903Y-2263D01*
X31803D01*
X31806Y-2434D01*
D02*
G37*
G36*
X30100Y1900D02*
Y-600D01*
X29200Y-1500D01*
Y-4900D01*
X28800Y-5300D01*
X28594D01*
X28575Y-5357D01*
X28550Y-5467D01*
X28531Y-5597D01*
X28517Y-5747D01*
X28506Y-6107D01*
X27506D01*
X27503Y-5917D01*
X27481Y-5597D01*
X27462Y-5467D01*
X27437Y-5357D01*
X27418Y-5300D01*
X25300D01*
X24629Y-4629D01*
Y1843D01*
X24878Y2092D01*
X29908D01*
X30100Y1900D01*
D02*
G37*
G36*
X12903Y-45974D02*
X12951Y-46696D01*
X12969Y-46793D01*
X12990Y-46874D01*
X13013Y-46939D01*
X13039Y-46988D01*
X11764D01*
X11790Y-46939D01*
X11813Y-46874D01*
X11834Y-46793D01*
X11852Y-46696D01*
X11880Y-46455D01*
X11896Y-46150D01*
X11902Y-45782D01*
X12902D01*
X12903Y-45974D01*
D02*
G37*
G36*
X10097Y-46006D02*
X10126Y-46439D01*
X10143Y-46560D01*
X10188Y-46766D01*
X10216Y-46852D01*
X10248Y-46926D01*
X10283Y-46988D01*
X9008D01*
X9044Y-46926D01*
X9076Y-46852D01*
X9104Y-46766D01*
X9128Y-46669D01*
X9149Y-46560D01*
X9179Y-46307D01*
X9188Y-46162D01*
X9196Y-45838D01*
X10096D01*
X10097Y-46006D01*
D02*
G37*
G36*
X10248Y-54074D02*
X10216Y-54148D01*
X10188Y-54234D01*
X10163Y-54331D01*
X10143Y-54440D01*
X10113Y-54693D01*
X10103Y-54838D01*
X10096Y-55161D01*
X9196D01*
X9194Y-54994D01*
X9166Y-54561D01*
X9149Y-54440D01*
X9104Y-54234D01*
X9076Y-54148D01*
X9044Y-54074D01*
X9008Y-54012D01*
X10283D01*
X10248Y-54074D01*
D02*
G37*
G36*
X7492D02*
X7460Y-54148D01*
X7432Y-54234D01*
X7407Y-54331D01*
X7387Y-54440D01*
X7357Y-54693D01*
X7347Y-54838D01*
X7340Y-55161D01*
X6440D01*
X6438Y-54994D01*
X6410Y-54561D01*
X6393Y-54440D01*
X6348Y-54234D01*
X6320Y-54148D01*
X6288Y-54074D01*
X6252Y-54012D01*
X7527D01*
X7492Y-54074D01*
D02*
G37*
D10*
X27213Y-64579D02*
G03*
X-27214Y-64579I-27213J64579D01*
G01*
X-27214D02*
X0D01*
X27213D01*
D11*
X31353Y960D02*
X31353Y960D01*
X31353Y-4135D02*
Y960D01*
X31353Y-4135D02*
X31353Y-4135D01*
X-4500Y14000D02*
X18000D01*
X-8206Y17706D02*
X-4500Y14000D01*
X-8206Y17706D02*
Y28500D01*
X8517Y-57791D02*
X9646Y-56663D01*
X6890Y-56785D02*
X7896Y-57791D01*
X8517D01*
X9646Y-56663D02*
Y-50500D01*
X6890Y-56785D02*
Y-50500D01*
X9646D02*
Y-4454D01*
X17973Y18700D02*
X17987Y18687D01*
Y14013D02*
Y18687D01*
Y14013D02*
X18000Y14000D01*
Y3900D02*
Y7200D01*
X9646Y-4454D02*
X18000Y3900D01*
X29380Y8444D02*
X29384Y8440D01*
X29376Y13599D02*
X29380Y13594D01*
Y8444D02*
Y13594D01*
D12*
X5000Y5000D02*
D03*
Y-5000D02*
D03*
Y-15000D02*
D03*
Y-25000D02*
D03*
X-5000D02*
D03*
Y5000D02*
D03*
Y-5000D02*
D03*
Y-15000D02*
D03*
X0Y-25000D02*
D03*
Y-15000D02*
D03*
Y-5000D02*
D03*
Y5000D02*
D03*
X45000Y-40000D02*
D03*
Y-30000D02*
D03*
Y40000D02*
D03*
Y30000D02*
D03*
Y20000D02*
D03*
Y10000D02*
D03*
Y0D02*
D03*
Y-10000D02*
D03*
Y-20000D02*
D03*
X55000Y-30000D02*
D03*
Y-20000D02*
D03*
Y30000D02*
D03*
Y20000D02*
D03*
Y10000D02*
D03*
Y0D02*
D03*
Y-10000D02*
D03*
X65000D02*
D03*
Y0D02*
D03*
Y10000D02*
D03*
X-35000Y-50000D02*
D03*
Y-40000D02*
D03*
Y-30000D02*
D03*
Y-20000D02*
D03*
Y-10000D02*
D03*
Y0D02*
D03*
Y10000D02*
D03*
Y20000D02*
D03*
Y30000D02*
D03*
Y40000D02*
D03*
Y50000D02*
D03*
X-45000Y-40000D02*
D03*
Y40000D02*
D03*
Y30000D02*
D03*
Y20000D02*
D03*
Y10000D02*
D03*
Y0D02*
D03*
Y-10000D02*
D03*
Y-20000D02*
D03*
Y-30000D02*
D03*
X-55000D02*
D03*
Y-20000D02*
D03*
Y30000D02*
D03*
Y20000D02*
D03*
Y10000D02*
D03*
Y0D02*
D03*
Y-10000D02*
D03*
X-65000D02*
D03*
Y0D02*
D03*
Y10000D02*
D03*
X21600Y19500D02*
D03*
Y14500D02*
D03*
Y17100D02*
D03*
X8800Y40400D02*
D03*
Y37900D02*
D03*
Y35500D02*
D03*
X18000Y14000D02*
D03*
Y7200D02*
D03*
D13*
X-8206Y28500D02*
D03*
D14*
X-5843D02*
D03*
X-3481D02*
D03*
X-1119D02*
D03*
X1243D02*
D03*
X3605D02*
D03*
D15*
X25447Y960D02*
D03*
X27416D02*
D03*
X29384D02*
D03*
X31353D02*
D03*
X25447Y8440D02*
D03*
X27416D02*
D03*
X29384D02*
D03*
X31353D02*
D03*
D16*
X28400Y4700D02*
D03*
D17*
X29376Y17163D02*
D03*
X25833Y17163D02*
D03*
X17971Y30300D02*
D03*
X14428Y30300D02*
D03*
X29376Y13599D02*
D03*
X25833Y13598D02*
D03*
X14627Y18700D02*
D03*
X17973D02*
D03*
X14627Y22300D02*
D03*
X17973D02*
D03*
X17971Y26800D02*
D03*
X14428Y26800D02*
D03*
X31353Y-4135D02*
D03*
X28006D02*
D03*
D18*
X-14411Y54268D02*
D03*
X14211D02*
D03*
D19*
X10727Y65332D02*
D03*
X8758D02*
D03*
X6790D02*
D03*
X4821D02*
D03*
X2853D02*
D03*
X884D02*
D03*
X-1084D02*
D03*
X-3053D02*
D03*
X-5021D02*
D03*
X-6990D02*
D03*
X-8958D02*
D03*
X-10927D02*
D03*
D20*
X-15157Y-50500D02*
D03*
X-12402D02*
D03*
X-9646D02*
D03*
X-6890D02*
D03*
X-4134D02*
D03*
X-1378D02*
D03*
X1378D02*
D03*
X4134D02*
D03*
X6890D02*
D03*
X9646D02*
D03*
X12402D02*
D03*
D21*
X15157D02*
D03*
D22*
X-12000Y15981D02*
X-7119Y11100D01*
X26500D01*
X27416Y10184D01*
Y8440D02*
Y10184D01*
X-12000Y15981D02*
Y38400D01*
X-13900Y-24300D02*
X-1378Y-36822D01*
X-13900Y-24300D02*
Y39600D01*
X-1378Y-50500D02*
Y-36822D01*
X-4134Y-50500D02*
Y-37766D01*
X-16000Y-25900D02*
X-4134Y-37766D01*
X-6890Y-50500D02*
Y-38510D01*
X-18100Y-27300D02*
X-6890Y-38510D01*
X3300Y18700D02*
X14627D01*
X1243Y20757D02*
X3300Y18700D01*
X3605Y23595D02*
Y28500D01*
Y23595D02*
X4900Y22300D01*
X14627D01*
X1243Y20757D02*
Y28500D01*
X3605D02*
Y41205D01*
X6790Y44390D01*
X-12000Y38400D02*
X-1084Y49316D01*
X-13900Y39600D02*
X-3053Y50447D01*
X-16000Y40300D02*
X-5021Y51279D01*
X-16000Y-25900D02*
Y40300D01*
X-18100Y40700D02*
X-6990Y51810D01*
X-18100Y-27300D02*
Y40700D01*
X-20100Y-28600D02*
Y41300D01*
X-8958Y52442D01*
X-20100Y-28600D02*
X-9646Y-39054D01*
X-22200Y-30100D02*
X-12402Y-39898D01*
X-22200Y41900D02*
X-10927Y53173D01*
X-22200Y-30100D02*
Y41900D01*
X-1084Y49316D02*
Y65332D01*
X-3053Y50447D02*
Y65332D01*
X-5021Y51279D02*
Y65332D01*
X6790Y44390D02*
Y65332D01*
X1243Y28500D02*
Y41443D01*
X4821Y45021D01*
Y65332D01*
X-1119Y42281D02*
X2853Y46253D01*
X-1119Y28500D02*
Y42281D01*
X2853Y46253D02*
Y65332D01*
X884Y47384D02*
Y65332D01*
X-3600Y28619D02*
Y42900D01*
X884Y47384D01*
X-3600Y28619D02*
X-3481Y28500D01*
X-9646Y-50500D02*
Y-39054D01*
X-8958Y52442D02*
Y65332D01*
X-6990Y51810D02*
Y65332D01*
X-10927Y53173D02*
Y65332D01*
X-12402Y-50500D02*
Y-39898D01*
D23*
X8758Y35542D02*
X8800Y35500D01*
X29376Y13599D02*
Y17163D01*
X29400Y17187D01*
Y19900D01*
X17973Y22300D02*
X27000D01*
X29400Y19900D01*
X17973Y18700D02*
Y22300D01*
X17972Y22301D02*
Y26799D01*
Y22301D02*
X17973Y22300D01*
X17971Y26800D02*
X17972Y26799D01*
X17971Y26800D02*
Y30300D01*
Y35629D01*
X10727Y42873D02*
X17971Y35629D01*
X10727Y42873D02*
Y65332D01*
X12402Y-50500D02*
Y-23098D01*
X28006Y-7494D01*
Y-4135D01*
X8758Y35542D02*
Y65332D01*
M02*
