G04*
G04 #@! TF.GenerationSoftware,Altium Limited,Altium Designer,22.0.2 (36)*
G04*
G04 Layer_Physical_Order=1*
G04 Layer_Color=255*
%FSLAX25Y25*%
%MOIN*%
G70*
G04*
G04 #@! TF.SameCoordinates,6020ED95-2C93-4A4D-A151-97898FCA3E42*
G04*
G04*
G04 #@! TF.FilePolarity,Positive*
G04*
G01*
G75*
%ADD10C,0.00050*%
%ADD11C,0.00900*%
%ADD12C,0.01772*%
G36*
X4954Y69271D02*
X9883Y68741D01*
X14762Y67861D01*
X19566Y66635D01*
X24270Y65069D01*
X28850Y63172D01*
X33283Y60953D01*
X37546Y58423D01*
X41619Y55596D01*
X45479Y52485D01*
X49107Y49107D01*
X52485Y45479D01*
X55596Y41619D01*
X58423Y37546D01*
X60953Y33283D01*
X63172Y28850D01*
X65069Y24270D01*
X66635Y19566D01*
X67861Y14762D01*
X68741Y9883D01*
X69271Y4954D01*
X69448Y0D01*
X69271Y-4954D01*
X68741Y-9883D01*
X67861Y-14762D01*
X66635Y-19566D01*
X65069Y-24270D01*
X63172Y-28850D01*
X60953Y-33283D01*
X58423Y-37546D01*
X55596Y-41619D01*
X52485Y-45479D01*
X49107Y-49107D01*
X45479Y-52485D01*
X41619Y-55596D01*
X37546Y-58423D01*
X33283Y-60953D01*
X28850Y-63172D01*
X26992Y-63942D01*
X-26992D01*
X-28850Y-63172D01*
X-33283Y-60953D01*
X-37546Y-58423D01*
X-41619Y-55596D01*
X-45479Y-52485D01*
X-49107Y-49107D01*
X-52485Y-45479D01*
X-55596Y-41619D01*
X-58423Y-37546D01*
X-60953Y-33283D01*
X-63172Y-28850D01*
X-65069Y-24270D01*
X-66635Y-19566D01*
X-67861Y-14762D01*
X-68741Y-9883D01*
X-69271Y-4954D01*
X-69448Y0D01*
X-69271Y4954D01*
X-68741Y9883D01*
X-67861Y14762D01*
X-66635Y19566D01*
X-65069Y24270D01*
X-63172Y28850D01*
X-60953Y33283D01*
X-58423Y37546D01*
X-55596Y41619D01*
X-52485Y45479D01*
X-49107Y49107D01*
X-45479Y52485D01*
X-41619Y55596D01*
X-37546Y58423D01*
X-33283Y60953D01*
X-28850Y63172D01*
X-24270Y65069D01*
X-19566Y66635D01*
X-14762Y67861D01*
X-9883Y68741D01*
X-4954Y69271D01*
X0Y69448D01*
X4954Y69271D01*
D02*
G37*
%LPC*%
G36*
X18296Y15486D02*
X17704D01*
X17158Y15260D01*
X16740Y14842D01*
X16514Y14296D01*
Y13704D01*
X16740Y13158D01*
X16858Y13041D01*
X16859Y13036D01*
X16860Y13033D01*
X16862Y13004D01*
X16862Y13001D01*
X16863Y12999D01*
X16863Y12991D01*
X16871Y12976D01*
X16872Y12970D01*
X16876Y12965D01*
X16878Y12956D01*
X16884Y12929D01*
X16889Y12897D01*
X16899Y12770D01*
X16901Y12694D01*
X16929Y12628D01*
Y8580D01*
X16901Y8518D01*
X16895Y8355D01*
X16890Y8310D01*
X16884Y8271D01*
X16878Y8244D01*
X16876Y8235D01*
X16872Y8230D01*
X16871Y8224D01*
X16863Y8209D01*
X16863Y8201D01*
X16862Y8199D01*
X16862Y8196D01*
X16860Y8167D01*
X16859Y8164D01*
X16858Y8159D01*
X16740Y8042D01*
X16514Y7496D01*
Y6904D01*
X16740Y6358D01*
X17158Y5940D01*
X17704Y5714D01*
X18296D01*
X18842Y5940D01*
X19260Y6358D01*
X19486Y6904D01*
Y7496D01*
X19260Y8042D01*
X19142Y8159D01*
X19141Y8164D01*
X19140Y8167D01*
X19138Y8196D01*
X19138Y8199D01*
X19137Y8201D01*
X19137Y8209D01*
X19129Y8224D01*
X19128Y8230D01*
X19124Y8235D01*
X19122Y8244D01*
X19116Y8271D01*
X19111Y8303D01*
X19101Y8430D01*
X19099Y8506D01*
X19071Y8572D01*
Y12619D01*
X19099Y12682D01*
X19105Y12845D01*
X19110Y12889D01*
X19116Y12929D01*
X19122Y12956D01*
X19124Y12965D01*
X19128Y12970D01*
X19129Y12976D01*
X19137Y12991D01*
X19137Y12999D01*
X19138Y13001D01*
X19138Y13004D01*
X19140Y13033D01*
X19141Y13036D01*
X19142Y13041D01*
X19260Y13158D01*
X19486Y13704D01*
Y14296D01*
X19260Y14842D01*
X18842Y15260D01*
X18296Y15486D01*
D02*
G37*
%LPD*%
G36*
X18588Y13331D02*
X18559Y13288D01*
X18533Y13238D01*
X18511Y13182D01*
X18493Y13119D01*
X18477Y13049D01*
X18465Y12973D01*
X18457Y12890D01*
X18450Y12706D01*
X17550D01*
X17548Y12801D01*
X17535Y12973D01*
X17523Y13049D01*
X17507Y13119D01*
X17489Y13182D01*
X17467Y13238D01*
X17441Y13288D01*
X17412Y13331D01*
X17380Y13367D01*
X18620D01*
X18588Y13331D01*
D02*
G37*
G36*
X18452Y8399D02*
X18465Y8227D01*
X18477Y8151D01*
X18493Y8081D01*
X18511Y8019D01*
X18533Y7962D01*
X18559Y7912D01*
X18588Y7869D01*
X18620Y7833D01*
X17380D01*
X17412Y7869D01*
X17441Y7912D01*
X17467Y7962D01*
X17489Y8019D01*
X17507Y8081D01*
X17523Y8151D01*
X17535Y8227D01*
X17543Y8310D01*
X17550Y8495D01*
X18450D01*
X18452Y8399D01*
D02*
G37*
D10*
X27213Y-64579D02*
G03*
X-27214Y-64579I-27213J64579D01*
G01*
X-27214D02*
X0D01*
X27213D01*
D11*
X18000Y7200D02*
Y14000D01*
D12*
X5000Y5000D02*
D03*
Y-5000D02*
D03*
Y-15000D02*
D03*
Y-25000D02*
D03*
X-5000D02*
D03*
Y5000D02*
D03*
Y-5000D02*
D03*
Y-15000D02*
D03*
X0Y-25000D02*
D03*
Y-15000D02*
D03*
Y-5000D02*
D03*
Y5000D02*
D03*
X45000Y-40000D02*
D03*
Y-30000D02*
D03*
Y40000D02*
D03*
Y30000D02*
D03*
Y20000D02*
D03*
Y10000D02*
D03*
Y0D02*
D03*
Y-10000D02*
D03*
Y-20000D02*
D03*
X55000Y-30000D02*
D03*
Y-20000D02*
D03*
Y30000D02*
D03*
Y20000D02*
D03*
Y10000D02*
D03*
Y0D02*
D03*
Y-10000D02*
D03*
X65000D02*
D03*
Y0D02*
D03*
Y10000D02*
D03*
X-35000Y-50000D02*
D03*
Y-40000D02*
D03*
Y-30000D02*
D03*
Y-20000D02*
D03*
Y-10000D02*
D03*
Y0D02*
D03*
Y10000D02*
D03*
Y20000D02*
D03*
Y30000D02*
D03*
Y40000D02*
D03*
Y50000D02*
D03*
X-45000Y-40000D02*
D03*
Y40000D02*
D03*
Y30000D02*
D03*
Y20000D02*
D03*
Y10000D02*
D03*
Y0D02*
D03*
Y-10000D02*
D03*
Y-20000D02*
D03*
Y-30000D02*
D03*
X-55000D02*
D03*
Y-20000D02*
D03*
Y30000D02*
D03*
Y20000D02*
D03*
Y10000D02*
D03*
Y0D02*
D03*
Y-10000D02*
D03*
X-65000D02*
D03*
Y0D02*
D03*
Y10000D02*
D03*
X21600Y19500D02*
D03*
Y14500D02*
D03*
Y17100D02*
D03*
X8800Y40400D02*
D03*
Y37900D02*
D03*
Y35500D02*
D03*
X18000Y14000D02*
D03*
Y7200D02*
D03*
M02*
