G04*
G04 #@! TF.GenerationSoftware,Altium Limited,Altium Designer,22.0.2 (36)*
G04*
G04 Layer_Color=2752767*
%FSLAX25Y25*%
%MOIN*%
G70*
G04*
G04 #@! TF.SameCoordinates,6020ED95-2C93-4A4D-A151-97898FCA3E42*
G04*
G04*
G04 #@! TF.FilePolarity,Positive*
G04*
G01*
G75*
%ADD10C,0.00050*%
%ADD34C,0.00200*%
D10*
X27213Y-64579D02*
G03*
X-27214Y-64579I-27213J64579D01*
G01*
X-27214D02*
X0D01*
X27213D01*
D34*
X4200Y4200D02*
Y5800D01*
X5800D01*
Y4200D01*
X4200D01*
Y-5800D02*
Y-4200D01*
X5800D01*
Y-5800D01*
X4200D01*
Y-15800D02*
Y-14200D01*
X5800D01*
Y-15800D01*
X4200D01*
Y-25800D02*
Y-24200D01*
X5800D01*
Y-25800D01*
X4200D01*
X-5800D02*
Y-24200D01*
X-4200D01*
Y-25800D01*
X-5800D01*
Y4200D02*
Y5800D01*
X-4200D01*
Y4200D01*
X-5800D01*
Y-5800D02*
Y-4200D01*
X-4200D01*
Y-5800D01*
X-5800D01*
Y-15800D02*
Y-14200D01*
X-4200D01*
Y-15800D01*
X-5800D01*
X-800Y-25800D02*
Y-24200D01*
X800D01*
Y-25800D01*
X-800D01*
Y-15800D02*
Y-14200D01*
X800D01*
Y-15800D01*
X-800D01*
Y-5800D02*
Y-4200D01*
X800D01*
Y-5800D01*
X-800D01*
Y4200D02*
Y5800D01*
X800D01*
Y4200D01*
X-800D01*
X44200Y-40800D02*
Y-39200D01*
X45800D01*
Y-40800D01*
X44200D01*
Y-30800D02*
Y-29200D01*
X45800D01*
Y-30800D01*
X44200D01*
Y39200D02*
Y40800D01*
X45800D01*
Y39200D01*
X44200D01*
Y29200D02*
Y30800D01*
X45800D01*
Y29200D01*
X44200D01*
Y19200D02*
Y20800D01*
X45800D01*
Y19200D01*
X44200D01*
Y9200D02*
Y10800D01*
X45800D01*
Y9200D01*
X44200D01*
Y-800D02*
Y800D01*
X45800D01*
Y-800D01*
X44200D01*
Y-10800D02*
Y-9200D01*
X45800D01*
Y-10800D01*
X44200D01*
Y-20800D02*
Y-19200D01*
X45800D01*
Y-20800D01*
X44200D01*
X54200Y-30800D02*
Y-29200D01*
X55800D01*
Y-30800D01*
X54200D01*
Y-20800D02*
Y-19200D01*
X55800D01*
Y-20800D01*
X54200D01*
Y29200D02*
Y30800D01*
X55800D01*
Y29200D01*
X54200D01*
Y19200D02*
Y20800D01*
X55800D01*
Y19200D01*
X54200D01*
Y9200D02*
Y10800D01*
X55800D01*
Y9200D01*
X54200D01*
Y-800D02*
Y800D01*
X55800D01*
Y-800D01*
X54200D01*
Y-10800D02*
Y-9200D01*
X55800D01*
Y-10800D01*
X54200D01*
X64200D02*
Y-9200D01*
X65800D01*
Y-10800D01*
X64200D01*
Y-800D02*
Y800D01*
X65800D01*
Y-800D01*
X64200D01*
Y9200D02*
Y10800D01*
X65800D01*
Y9200D01*
X64200D01*
X-35800Y-50800D02*
Y-49200D01*
X-34200D01*
Y-50800D01*
X-35800D01*
Y-40800D02*
Y-39200D01*
X-34200D01*
Y-40800D01*
X-35800D01*
Y-30800D02*
Y-29200D01*
X-34200D01*
Y-30800D01*
X-35800D01*
Y-20800D02*
Y-19200D01*
X-34200D01*
Y-20800D01*
X-35800D01*
Y-10800D02*
Y-9200D01*
X-34200D01*
Y-10800D01*
X-35800D01*
Y-800D02*
Y800D01*
X-34200D01*
Y-800D01*
X-35800D01*
Y9200D02*
Y10800D01*
X-34200D01*
Y9200D01*
X-35800D01*
Y19200D02*
Y20800D01*
X-34200D01*
Y19200D01*
X-35800D01*
Y29200D02*
Y30800D01*
X-34200D01*
Y29200D01*
X-35800D01*
Y39200D02*
Y40800D01*
X-34200D01*
Y39200D01*
X-35800D01*
Y49200D02*
Y50800D01*
X-34200D01*
Y49200D01*
X-35800D01*
X-45800Y-40800D02*
Y-39200D01*
X-44200D01*
Y-40800D01*
X-45800D01*
Y39200D02*
Y40800D01*
X-44200D01*
Y39200D01*
X-45800D01*
Y29200D02*
Y30800D01*
X-44200D01*
Y29200D01*
X-45800D01*
Y19200D02*
Y20800D01*
X-44200D01*
Y19200D01*
X-45800D01*
Y9200D02*
Y10800D01*
X-44200D01*
Y9200D01*
X-45800D01*
Y-800D02*
Y800D01*
X-44200D01*
Y-800D01*
X-45800D01*
Y-10800D02*
Y-9200D01*
X-44200D01*
Y-10800D01*
X-45800D01*
Y-20800D02*
Y-19200D01*
X-44200D01*
Y-20800D01*
X-45800D01*
Y-30800D02*
Y-29200D01*
X-44200D01*
Y-30800D01*
X-45800D01*
X-55800D02*
Y-29200D01*
X-54200D01*
Y-30800D01*
X-55800D01*
Y-20800D02*
Y-19200D01*
X-54200D01*
Y-20800D01*
X-55800D01*
Y29200D02*
Y30800D01*
X-54200D01*
Y29200D01*
X-55800D01*
Y19200D02*
Y20800D01*
X-54200D01*
Y19200D01*
X-55800D01*
Y9200D02*
Y10800D01*
X-54200D01*
Y9200D01*
X-55800D01*
Y-800D02*
Y800D01*
X-54200D01*
Y-800D01*
X-55800D01*
Y-10800D02*
Y-9200D01*
X-54200D01*
Y-10800D01*
X-55800D01*
X-65800D02*
Y-9200D01*
X-64200D01*
Y-10800D01*
X-65800D01*
Y-800D02*
Y800D01*
X-64200D01*
Y-800D01*
X-65800D01*
Y9200D02*
Y10800D01*
X-64200D01*
Y9200D01*
X-65800D01*
X20800Y18700D02*
Y20300D01*
X22400D01*
Y18700D01*
X20800D01*
Y13700D02*
Y15300D01*
X22400D01*
Y13700D01*
X20800D01*
Y16300D02*
Y17900D01*
X22400D01*
Y16300D01*
X20800D01*
X8000Y39600D02*
Y41200D01*
X9600D01*
Y39600D01*
X8000D01*
Y37100D02*
Y38700D01*
X9600D01*
Y37100D01*
X8000D01*
Y34700D02*
Y36300D01*
X9600D01*
Y34700D01*
X8000D01*
X17200Y13200D02*
Y14800D01*
X18800D01*
Y13200D01*
X17200D01*
Y6400D02*
Y8000D01*
X18800D01*
Y6400D01*
X17200D01*
M02*
