G04*
G04 #@! TF.GenerationSoftware,Altium Limited,Altium Designer,22.0.2 (36)*
G04*
G04 Layer_Color=128*
%FSLAX25Y25*%
%MOIN*%
G70*
G04*
G04 #@! TF.SameCoordinates,6020ED95-2C93-4A4D-A151-97898FCA3E42*
G04*
G04*
G04 #@! TF.FilePolarity,Positive*
G04*
G01*
G75*
%ADD10C,0.00050*%
G04:AMPARAMS|DCode=13|XSize=78.74mil|YSize=15.75mil|CornerRadius=0mil|HoleSize=0mil|Usage=FLASHONLY|Rotation=270.000|XOffset=0mil|YOffset=0mil|HoleType=Round|Shape=Octagon|*
%AMOCTAGOND13*
4,1,8,-0.00394,-0.03937,0.00394,-0.03937,0.00787,-0.03543,0.00787,0.03543,0.00394,0.03937,-0.00394,0.03937,-0.00787,0.03543,-0.00787,-0.03543,-0.00394,-0.03937,0.0*
%
%ADD13OCTAGOND13*%

%ADD14O,0.01575X0.07874*%
%ADD15R,0.00945X0.01968*%
%ADD16R,0.04724X0.02362*%
%ADD17R,0.01575X0.01968*%
%ADD18R,0.01181X0.04528*%
%ADD19R,0.01181X0.02559*%
%ADD20O,0.01378X0.07874*%
G04:AMPARAMS|DCode=21|XSize=78.74mil|YSize=13.78mil|CornerRadius=0mil|HoleSize=0mil|Usage=FLASHONLY|Rotation=270.000|XOffset=0mil|YOffset=0mil|HoleType=Round|Shape=Octagon|*
%AMOCTAGOND21*
4,1,8,-0.00345,-0.03937,0.00345,-0.03937,0.00689,-0.03593,0.00689,0.03593,0.00345,0.03937,-0.00345,0.03937,-0.00689,0.03593,-0.00689,-0.03593,-0.00345,-0.03937,0.0*
%
%ADD21OCTAGOND21*%

D10*
X27213Y-64579D02*
G03*
X-27214Y-64579I-27213J64579D01*
G01*
X-27214D02*
X0D01*
X27213D01*
D13*
X-8206Y28500D02*
D03*
D14*
X-5843D02*
D03*
X-3481D02*
D03*
X-1119D02*
D03*
X1243D02*
D03*
X3605D02*
D03*
D15*
X25447Y960D02*
D03*
X27416D02*
D03*
X29384D02*
D03*
X31353D02*
D03*
X25447Y8440D02*
D03*
X27416D02*
D03*
X29384D02*
D03*
X31353D02*
D03*
D16*
X28400Y4700D02*
D03*
D17*
X29376Y17163D02*
D03*
X25833Y17163D02*
D03*
X17971Y30300D02*
D03*
X14428Y30300D02*
D03*
X29376Y13599D02*
D03*
X25833Y13598D02*
D03*
X14627Y18700D02*
D03*
X17973D02*
D03*
X14627Y22300D02*
D03*
X17973D02*
D03*
X17971Y26800D02*
D03*
X14428Y26800D02*
D03*
X31353Y-4135D02*
D03*
X28006D02*
D03*
D18*
X-14411Y54268D02*
D03*
X14211D02*
D03*
D19*
X10727Y65332D02*
D03*
X8758D02*
D03*
X6790D02*
D03*
X4821D02*
D03*
X2853D02*
D03*
X884D02*
D03*
X-1084D02*
D03*
X-3053D02*
D03*
X-5021D02*
D03*
X-6990D02*
D03*
X-8958D02*
D03*
X-10927D02*
D03*
D20*
X-15157Y-50500D02*
D03*
X-12402D02*
D03*
X-9646D02*
D03*
X-6890D02*
D03*
X-4134D02*
D03*
X-1378D02*
D03*
X1378D02*
D03*
X4134D02*
D03*
X6890D02*
D03*
X9646D02*
D03*
X12402D02*
D03*
D21*
X15157D02*
D03*
M02*
